# xmcd
#
# Track frame offsets:
#	150
#	25136
#	51791
#	77246
#	78437
#	106898
#	131235
#	160035
#	190240
#	219014
#	219909
#	249829
#	282314
#	311988
#	342499
#
# Disc length: 4731 seconds
#
# Revision: 1
# Processed by: cddbd v1.5.2PL0 Copyright (c) Steve Scherf et al.
# Submitted via: audiograbber 1.83.01
#
DISCID=cf12790f
DTITLE=Karl Menrad - Die Fantastischen Abenteuer Des Pan Tau [CD3)
DYEAR=2009
DGENRE=Kinderhörbuch
TTITLE0=Einmal Vagabundenreise erster Klasse und zurück - Teil 3
TTITLE1=Einmal Vagabundenreise erster Klasse und zurück - Teil 4
TTITLE2=Einmal Vagabundenreise erster Klasse und zurück - Teil 5
TTITLE3=Einmal Vagabundenreise erster Klasse und zurück - Teil 6
TTITLE4=C´est la vie - Teil 1
TTITLE5=C´est la vie - Teil 2
TTITLE6=C´est la vie - Teil 3
TTITLE7=C´est la vie - Teil 4
TTITLE8=C´est la vie - Teil 5
TTITLE9=C´est la vie - Teil 6
TTITLE10=Auto fahren - Teil 1
TTITLE11=Auto fahren - Teil 2
TTITLE12=Auto fahren - Teil 3
TTITLE13=Auto fahren - Teil 4
TTITLE14=Vorhang Auf Für Pan Tau! (Reprise)
EXTD=
EXTT0=
EXTT1=
EXTT2=
EXTT3=
EXTT4=
EXTT5=
EXTT6=
EXTT7=
EXTT8=
EXTT9=
EXTT10=
EXTT11=
EXTT12=
EXTT13=
EXTT14=
PLAYORDER=
